<mxfile host="www.draw.io" modified="2019-11-22T10:26:01.841Z" agent="Mozilla/5.0 (Macintosh; Intel Mac OS X 10_13_6) AppleWebKit/537.36 (KHTML, like Gecko) Chrome/78.0.3904.108 Safari/537.36" etag="Ocf-ZkzSNfYibFxpd2Ep" version="12.2.9" type="github" pages="1">
  <diagram name="Page-1" id="7a6c530e-6e37-e111-ec74-82921da8cc10">
    <mxGraphModel dx="1186" dy="644" grid="1" gridSize="10" guides="1" tooltips="1" connect="1" arrows="1" fold="1" page="1" pageScale="1.5" pageWidth="1169" pageHeight="826" background="#184380" math="0" shadow="0">
      <root>
        <mxCell id="0" style=";html=1;"/>
        <mxCell id="1" style=";html=1;" parent="0"/>
        <mxCell id="23046e2b9bb16c14-116" value="迷笛区块链系统" style="whiteSpace=wrap;html=1;rounded=1;shadow=0;strokeColor=none;strokeWidth=2;fillColor=#009BFF;fontSize=20;fontColor=#FFFFFF;align=center;arcSize=3;verticalAlign=top;spacingTop=4;" parent="1" vertex="1">
          <mxGeometry x="370" y="248" width="1010" height="532" as="geometry"/>
        </mxCell>
        <mxCell id="23046e2b9bb16c14-54" value="&lt;font style=&quot;font-size: 14px&quot;&gt;1.区块链底层系统&lt;/font&gt;" style="rounded=1;whiteSpace=wrap;html=1;shadow=0;strokeWidth=2;fillColor=none;fontSize=11;fontColor=#FFFFFF;align=center;strokeColor=#FFFFFF;dashed=1;verticalAlign=top;glass=0;" parent="1" vertex="1">
          <mxGeometry x="760" y="415" width="240" height="190" as="geometry"/>
        </mxCell>
        <mxCell id="23046e2b9bb16c14-56" value="&lt;span&gt;API&lt;/span&gt;" style="rounded=1;whiteSpace=wrap;html=1;shadow=0;strokeWidth=2;fillColor=none;fontSize=11;fontColor=#FFFFFF;align=center;strokeColor=#FFFFFF;dashed=1;verticalAlign=top;" parent="1" vertex="1">
          <mxGeometry x="710" y="303" width="306" height="50" as="geometry"/>
        </mxCell>
        <mxCell id="23046e2b9bb16c14-65" value="" style="shadow=0;dashed=0;html=1;strokeColor=none;shape=mxgraph.mscae.enterprise.web;fillColor=#FFFFFF;rounded=1;fontSize=11;fontColor=#FFFFFF;align=center;" parent="1" vertex="1">
          <mxGeometry x="734" y="460" width="50" height="50" as="geometry"/>
        </mxCell>
        <mxCell id="23046e2b9bb16c14-66" value="" style="shadow=0;dashed=0;html=1;strokeColor=none;shape=mxgraph.mscae.enterprise.web;fillColor=#FFFFFF;rounded=1;fontSize=11;fontColor=#FFFFFF;align=center;" parent="1" vertex="1">
          <mxGeometry x="852" y="580" width="50" height="50" as="geometry"/>
        </mxCell>
        <mxCell id="23046e2b9bb16c14-67" value="" style="shadow=0;dashed=0;html=1;strokeColor=none;shape=mxgraph.mscae.enterprise.web;fillColor=#FFFFFF;rounded=1;fontSize=11;fontColor=#FFFFFF;align=center;" parent="1" vertex="1">
          <mxGeometry x="976" y="460" width="50" height="50" as="geometry"/>
        </mxCell>
        <mxCell id="23046e2b9bb16c14-85" value="" style="rounded=0;whiteSpace=wrap;html=1;shadow=0;strokeWidth=2;fillColor=#8BC63E;fontSize=12;fontColor=#FFFFFF;align=center;strokeColor=none;arcSize=6;verticalAlign=top;" parent="1" vertex="1">
          <mxGeometry x="635" y="140" width="565" height="97" as="geometry"/>
        </mxCell>
        <mxCell id="23046e2b9bb16c14-113" value="系统架构" style="text;strokeColor=none;fillColor=none;html=1;fontSize=24;fontStyle=1;verticalAlign=middle;align=center;rounded=0;shadow=0;fontColor=#FFFFFF;" parent="1" vertex="1">
          <mxGeometry x="147" y="40" width="1510" height="40" as="geometry"/>
        </mxCell>
        <mxCell id="e-3tV0VDrXveXWY3tUvR-1" value="&lt;font style=&quot;font-size: 14px&quot;&gt;手机APP&lt;/font&gt;" style="aspect=fixed;html=1;points=[];align=center;image;fontSize=12;image=img/lib/mscae/App_Service_Mobile_App.svg;" parent="1" vertex="1">
          <mxGeometry x="666" y="158" width="34" height="50" as="geometry"/>
        </mxCell>
        <mxCell id="e-3tV0VDrXveXWY3tUvR-3" value="" style="rounded=0;whiteSpace=wrap;html=1;shadow=0;strokeWidth=2;fillColor=#8BC63E;fontSize=12;fontColor=#FFFFFF;align=center;strokeColor=none;arcSize=6;verticalAlign=top;" parent="1" vertex="1">
          <mxGeometry x="200" y="316" width="140" height="330" as="geometry"/>
        </mxCell>
        <mxCell id="e-3tV0VDrXveXWY3tUvR-4" value="&lt;span style=&quot;background-color: rgb(255 , 255 , 255)&quot;&gt;&lt;font style=&quot;font-size: 14px&quot;&gt;桌面浏览器&lt;/font&gt;&lt;/span&gt;" style="aspect=fixed;pointerEvents=1;shadow=0;dashed=0;html=1;strokeColor=none;labelPosition=center;verticalLabelPosition=bottom;verticalAlign=top;align=center;fillColor=#00188D;shape=mxgraph.mscae.enterprise.secure_virtual_machine" parent="1" vertex="1">
          <mxGeometry x="245" y="452.5" width="50" height="38" as="geometry"/>
        </mxCell>
        <mxCell id="e-3tV0VDrXveXWY3tUvR-7" value="&lt;font style=&quot;font-size: 14px&quot;&gt;4. 特征提取算法&lt;/font&gt;" style="aspect=fixed;html=1;points=[];align=center;image;fontSize=12;image=img/lib/mscae/Machine_Learning_Studio_Workspaces.svg;glass=0;" parent="1" vertex="1">
          <mxGeometry x="670" y="475" width="50" height="50" as="geometry"/>
        </mxCell>
        <mxCell id="e-3tV0VDrXveXWY3tUvR-8" value="&lt;font style=&quot;font-size: 14px&quot;&gt;4. 特征提取算法&lt;/font&gt;" style="aspect=fixed;html=1;points=[];align=center;image;fontSize=12;image=img/lib/mscae/Machine_Learning_Studio_Workspaces.svg;glass=0;" parent="1" vertex="1">
          <mxGeometry x="1041" y="452.5" width="50" height="50" as="geometry"/>
        </mxCell>
        <mxCell id="e-3tV0VDrXveXWY3tUvR-9" value="&lt;font style=&quot;font-size: 14px&quot;&gt;4. 特征提取算法&lt;/font&gt;" style="aspect=fixed;html=1;points=[];align=center;image;fontSize=12;image=img/lib/mscae/Machine_Learning_Studio_Workspaces.svg;glass=0;" parent="1" vertex="1">
          <mxGeometry x="851" y="630" width="50" height="50" as="geometry"/>
        </mxCell>
        <mxCell id="e-3tV0VDrXveXWY3tUvR-10" value="&lt;font style=&quot;font-size: 14px&quot;&gt;2.外部接口系统&lt;/font&gt;" style="aspect=fixed;html=1;points=[];align=center;image;fontSize=12;image=img/lib/mscae/Virtual_Clusters.svg;glass=0;" parent="1" vertex="1">
          <mxGeometry x="734" y="305" width="50" height="48" as="geometry"/>
        </mxCell>
        <mxCell id="e-3tV0VDrXveXWY3tUvR-11" value="&lt;font style=&quot;font-size: 14px&quot;&gt;2.外部接口系统&lt;/font&gt;" style="aspect=fixed;html=1;points=[];align=center;image;fontSize=12;image=img/lib/mscae/Virtual_Clusters.svg;glass=0;" parent="1" vertex="1">
          <mxGeometry x="938" y="305" width="50" height="48" as="geometry"/>
        </mxCell>
        <mxCell id="e-3tV0VDrXveXWY3tUvR-16" value="&lt;font style=&quot;font-size: 14px&quot;&gt;3.后台管理系统&lt;/font&gt;" style="aspect=fixed;html=1;points=[];align=center;image;fontSize=12;image=img/lib/mscae/Azure_Boards.svg;glass=0;" parent="1" vertex="1">
          <mxGeometry x="483" y="481" width="69" height="69" as="geometry"/>
        </mxCell>
        <mxCell id="e-3tV0VDrXveXWY3tUvR-18" value="&lt;font style=&quot;font-size: 14px&quot;&gt;国家版权中心&lt;/font&gt;" style="aspect=fixed;html=1;points=[];align=center;image;fontSize=12;image=img/lib/mscae/App_Registrations.svg;glass=0;" parent="1" vertex="1">
          <mxGeometry x="794" y="158" width="50" height="50" as="geometry"/>
        </mxCell>
        <mxCell id="e-3tV0VDrXveXWY3tUvR-19" value="&lt;font style=&quot;font-size: 14px&quot;&gt;中国联通&lt;/font&gt;" style="aspect=fixed;html=1;points=[];align=center;image;fontSize=12;image=img/lib/mscae/Store_Marketplace.svg;glass=0;" parent="1" vertex="1">
          <mxGeometry x="938" y="154" width="44" height="50" as="geometry"/>
        </mxCell>
        <mxCell id="e-3tV0VDrXveXWY3tUvR-20" value="&lt;span style=&quot;background-color: rgb(255 , 255 , 255)&quot;&gt;&lt;font style=&quot;font-size: 14px&quot;&gt;网易云音乐&lt;/font&gt;&lt;/span&gt;" style="aspect=fixed;shadow=0;dashed=0;html=1;strokeColor=none;labelPosition=center;verticalLabelPosition=bottom;verticalAlign=top;align=center;shape=mxgraph.mscae.cloud.azure_rights_management_rms;fillColor=#58B4D9;glass=0;" parent="1" vertex="1">
          <mxGeometry x="1084" y="154" width="42" height="50" as="geometry"/>
        </mxCell>
        <mxCell id="e-3tV0VDrXveXWY3tUvR-24" value="Text" style="text;html=1;resizable=0;autosize=1;align=center;verticalAlign=middle;points=[];fillColor=none;strokeColor=none;rounded=0;glass=0;" parent="1" vertex="1">
          <mxGeometry x="200" y="800" width="40" height="20" as="geometry"/>
        </mxCell>
        <mxCell id="B0VsmdUCjXi5I5y6JgoD-1" value="Text" style="text;html=1;resizable=0;autosize=1;align=center;verticalAlign=middle;points=[];fillColor=none;strokeColor=none;rounded=0;" vertex="1" parent="1">
          <mxGeometry x="150" y="840" width="40" height="20" as="geometry"/>
        </mxCell>
      </root>
    </mxGraphModel>
  </diagram>
</mxfile>
